<svg xmlns="http://www.w3.org/2000/svg" xmlns:xlink="http://www.w3.org/1999/xlink" viewBox="0 0 1138.67 251.17"><defs><style>.cls-1,.cls-2{fill:#1a1a18;}.cls-2{fill-rule:evenodd;}.cls-3{fill:url(#Безымянный_градиент_460);}.cls-4{fill:url(#Безымянный_градиент_483);}.cls-5{fill:#fc0;}.cls-6{fill:#fff;}</style><radialGradient id="Безымянный_градиент_460" cx="155.18" cy="125.59" fx="53.65622940017563" fy="155.22013523512467" r="243.41" gradientUnits="userSpaceOnUse"><stop offset="0" stop-color="#8a8a8a"/><stop offset="0.46" stop-color="#4e4e4e"/><stop offset="0.82" stop-color="#262626"/><stop offset="1" stop-color="#171717"/></radialGradient><radialGradient id="Безымянный_градиент_483" cx="31.68" cy="93.44" fx="-19.636336082767187" fy="51.02141260948837" r="108.5" gradientUnits="userSpaceOnUse"><stop offset="0.25" stop-color="#8a8a8a"/><stop offset="0.5" stop-color="#515151"/><stop offset="0.77" stop-color="#171717"/></radialGradient></defs><g id="Слой_2" data-name="Слой 2"><g id="Слой_1-2" data-name="Слой 1"><path id="Path_20" data-name="Path 20" class="cls-1" d="M1119.82,89.21a19,19,0,0,1,9.32,2.54,17.65,17.65,0,0,1,7,7.2,19.94,19.94,0,0,1,0,19.46,18.31,18.31,0,0,1-7.08,7.18,18.51,18.51,0,0,1-18.88,0,18.06,18.06,0,0,1-7-7.21,19.88,19.88,0,0,1-2.51-9.74,20.38,20.38,0,0,1,2.63-9.79,18.14,18.14,0,0,1,7.08-7.09A19.11,19.11,0,0,1,1119.82,89.21Zm0,3.81a15.28,15.28,0,0,0-7.52,2,14.74,14.74,0,0,0-5.67,5.76,16.16,16.16,0,0,0-.17,15.69,14.8,14.8,0,0,0,5.67,5.81,15.14,15.14,0,0,0,20.68-5.52l.16-.27a16,16,0,0,0,0-15.68,14.2,14.2,0,0,0-5.67-5.8A15.26,15.26,0,0,0,1119.82,93ZM1111,119.07l.14-20.7h10.52a7.91,7.91,0,0,1,3.16.85,5,5,0,0,1,1.86,2,6.19,6.19,0,0,1,.75,3,5.58,5.58,0,0,1-1.42,3.81,6.45,6.45,0,0,1-4,2,4.68,4.68,0,0,1,1.42.78,11.07,11.07,0,0,1,1.42,1.64c.14.2.64,1.05,1.42,2.53l2.35,4.25h-5.06l-1.66-3.3a13.73,13.73,0,0,0-2.83-4.26,4.39,4.39,0,0,0-2.84-.87h-1.06v8.5Zm4.17-11.73h1.61a20,20,0,0,0,4.38-.27,2.49,2.49,0,0,0,1.42-1,2.65,2.65,0,0,0,.51-1.65,2.52,2.52,0,0,0-1.9-2.51,19,19,0,0,0-4.39-.3h-1.65Z"/><path id="Path_21" data-name="Path 21" class="cls-2" d="M331.88,159.76l14.05-73.91h15.72l-7.73,43.81a50.6,50.6,0,0,0-1,9.18,7.89,7.89,0,0,0,1.24,4.25,9.51,9.51,0,0,0,4.81,3.73,26.65,26.65,0,0,0,8.78,1.14h18.42L384,160.29Zm84.81-60.32H401.53l2.41-13.59h15.15ZM406,160.39H390.8l9.65-54.68H415.6Zm43.71-11.34h7.48l5.59-31.64h-7.49a52,52,0,0,0-7.68.4,13.39,13.39,0,0,0-4,1.42,15.77,15.77,0,0,0-5.81,5.34,23.58,23.58,0,0,0-3.09,8.59q-1.53,8.76,1.65,12.34c2.2,2.36,6.62,3.55,13.31,3.55ZM470,158.39a27.79,27.79,0,0,1-7.94,16.52,23.88,23.88,0,0,1-16.54,5.27H417.2l2-11.09H445a10.72,10.72,0,0,0,6.73-2,8.89,8.89,0,0,0,3.3-5.78l.15-.92H443.48A42.73,42.73,0,0,1,430.6,159a15.79,15.79,0,0,1-6.61-4.67,19.4,19.4,0,0,1-4.46-9.19,31.46,31.46,0,0,1,0-12,37.64,37.64,0,0,1,4.17-11.82,31.49,31.49,0,0,1,7.62-9.21,25.3,25.3,0,0,1,9.07-5A45.15,45.15,0,0,1,453,105.68h26.28l-9.3,52.71Zm24.8-72.52h14.33l-3.49,19.84h12.84c8,0,13.58,1.64,16.54,4.74s3.94,8.27,2.71,15.3l-6.13,34.72H517.09l5.81-33a9.7,9.7,0,0,0-.7-7.64,9.49,9.49,0,0,0-7.23-2H503.39l-7.5,42.65H481.72L494.84,86Zm53.57,19.84h10.16l3.49-19.84h14.43L573,105.71h15.19l-1.87,10.85H571.06l-3.91,22.11a11.89,11.89,0,0,0,.58,8.44c1.11,1.64,3.39,2.33,6.83,2.33h5.94l-1.94,10.9H565.34a13.7,13.7,0,0,1-11.47-4.42,15.68,15.68,0,0,1-2-12.75l4.76-26.68H546.46l1.91-10.88Zm48.34,0-9.63,54.68h14.4L609,117.74h11.58a10.18,10.18,0,0,1,7.33,1.83c1,1.2,1.2,3.87.49,8l-5.81,32.87H637l6.12-34.73q1.9-10.75-2.54-15.4t-16.75-4.65Zm78.53-6.23H660.11l2.48-13.61h15.14l-2.38,13.59Zm-10.75,61H649.35l9.7-54.74h15.16Zm22.11-54.74h27.21q12.3,0,16.75,4.65t2.57,15.39l-6.08,34.73H712.62l5.81-32.8q1.07-6.12-.5-8a10.05,10.05,0,0,0-7.32-1.81H699l-7.51,42.63H677.09l9.64-54.68Zm83.86,43.37H778l5.57-31.63h-7.47a51.87,51.87,0,0,0-7.68.39,14.44,14.44,0,0,0-4,1.42,16.07,16.07,0,0,0-5.88,5.32,23.54,23.54,0,0,0-3.06,8.53q-1.56,8.76,1.65,12.34c2.19,2.37,6.61,3.56,13.3,3.56Zm20.36,9.34a27.88,27.88,0,0,1-7.93,16.54,24,24,0,0,1-16.54,5.27H738l2-11.11h25.85a10.66,10.66,0,0,0,6.73-2,8.87,8.87,0,0,0,3.3-5.79l.17-.92H764.31A42.57,42.57,0,0,1,751.4,159a15.54,15.54,0,0,1-6.62-4.68,19.43,19.43,0,0,1-4.35-9.21,31.35,31.35,0,0,1,0-12,37.8,37.8,0,0,1,4.25-11.82,31.58,31.58,0,0,1,7.62-9.2,25.3,25.3,0,0,1,9.07-5,44.84,44.84,0,0,1,12.48-1.41h26.26l-9.26,52.71Zm54.74-59.75a19,19,0,0,0-15.05,6.16q-5.38,6.16-7.86,20.31c-1.41,8.27-1.09,13.95,1.05,17.28s6.61,5,13.23,5h25.72l-2.38,13H833.9a48.15,48.15,0,0,1-13.53-1.42,22.18,22.18,0,0,1-15-17,46.46,46.46,0,0,1,.24-17.51q3.49-19.85,13.71-29.14t28.1-9.41h26l-2.26,12.75Zm38-12.76-13.12,74.5h14.31l7.53-42.65h11.57a9.4,9.4,0,0,1,7.23,2,9.83,9.83,0,0,1,.71,7.64l-5.81,33H920.5l6.1-34.73q1.88-10.51-2.69-15.29c-3-3.16-8.59-4.75-16.54-4.75H894.53L898,85.78Zm71.66,63.45h18.08L975.27,138h-17a14.24,14.24,0,0,0-7.26,1.41,6.64,6.64,0,0,0-2.83,4.77,4.12,4.12,0,0,0,.84,4,10.57,10.57,0,0,0,6.1,1.14Zm-11.58-43.68h29.55q11.17,0,16,5.15c3.18,3.43,4.16,8.5,3,15.28l-6,34.25H947.33a15,15,0,0,1-11.8-4.09,13.13,13.13,0,0,1-2.33-11.58,19.72,19.72,0,0,1,7.39-13.37q5.73-4,17.5-4.06h19l.25-1.42a6.58,6.58,0,0,0-1.66-6.82,17.09,17.09,0,0,0-9.92-2h-24l2-11.34Zm64.74,0h24.22q8.5,0,11.34,3.07t1.54,10.72l-1.66,9.15h-13.8l1.32-7.09a5.47,5.47,0,0,0-.39-4.25c-.62-.73-2.29-1.09-5-1.09h-5l-7.73,44.09H998.84l9.65-54.68Zm43.38,0H1062l3.51-19.84h14.42l-3.49,19.84h15.26l-1.88,10.9h-15.29l-3.89,22.1a11.91,11.91,0,0,0,.58,8.43,7.8,7.8,0,0,0,6.82,2.34h5.94l-1.91,10.9h-13.23a13.75,13.75,0,0,1-11.49-4.41,15.57,15.57,0,0,1-2-12.75l4.75-26.66h-10.18Z"/><polygon class="cls-1" points="215.18 145.56 181.9 102.25 191.22 87.8 215.18 145.56"/><rect class="cls-3" x="29.59" width="251.17" height="251.17" rx="43.34"/><polygon class="cls-4" points="29.59 192.8 126.16 61.62 29.59 113.45 29.59 192.8"/><polygon class="cls-1" points="128.4 197.79 93.28 148.16 109.32 131.98 128.4 197.79"/><polygon class="cls-1" points="196 36.89 136.28 97.57 143.29 113.1 196 36.89"/><polygon class="cls-1" points="218.7 157.77 184.87 113.75 194.35 99.06 218.7 157.77"/><polygon class="cls-5" points="240.31 38.31 221.58 82.81 196 36.89 143.29 113.1 126.16 61.62 16.22 147.43 0 242.18 109.32 131.98 128.4 197.79 194.35 99 218.7 157.71 256.06 56.84 309.55 12.44 240.31 38.31"/><polygon class="cls-1" points="240.31 38.31 215.88 72.58 221.58 82.81 240.31 38.31"/><path id="Path_18" data-name="Path 18" class="cls-6" d="M230.12,230.66A3.35,3.35,0,0,1,227,234.2H215a3.38,3.38,0,0,1-3.54-3.2h0a1.93,1.93,0,0,1,0-.34V218h4.5v12.29h9.82v-46h4.5Z"/><path id="Path_19" data-name="Path 19" class="cls-6" d="M257.56,230.66a3.45,3.45,0,0,1-1,2.57,3.32,3.32,0,0,1-2.57,1H241.44a3.38,3.38,0,0,1-3.56-3.55V218h4.5v12.29h10.78v-11.9l-13.79-16.72a5.79,5.79,0,0,1-1.49-3.8V187.76a3.38,3.38,0,0,1,1-2.57,3.54,3.54,0,0,1,2.57-1H254a3.34,3.34,0,0,1,2.57,1,3.48,3.48,0,0,1,1,2.57v11.58h-4.42V188.11h-10.8v10.51l13.86,16.66a5.74,5.74,0,0,1,1.36,3.74Z"/></g></g></svg>