<svg xmlns="http://www.w3.org/2000/svg" xmlns:xlink="http://www.w3.org/1999/xlink" viewBox="0 0 309.55 251.17"><defs><style>.cls-1{fill:#1a1a18;}.cls-2{fill:url(#Безымянный_градиент);}.cls-3{fill:url(#Безымянный_градиент_2);}.cls-4{fill:#fc0;}.cls-5{fill:#fff;}</style><radialGradient id="Безымянный_градиент" cx="155.18" cy="128.42" fx="53.65125269528228" fy="158.04514288191274" r="243.41" gradientTransform="matrix(1, 0, 0, -1, 0, 254)" gradientUnits="userSpaceOnUse"><stop offset="0" stop-color="#8a8a8a"/><stop offset="0.46" stop-color="#4e4e4e"/><stop offset="0.82" stop-color="#262626"/><stop offset="1" stop-color="#171717"/></radialGradient><radialGradient id="Безымянный_градиент_2" cx="31.68" cy="160.56" fx="-19.63633944483709" fy="118.1414086205968" r="108.5" gradientTransform="matrix(1, 0, 0, -1, 0, 254)" gradientUnits="userSpaceOnUse"><stop offset="0.25" stop-color="#8a8a8a"/><stop offset="0.5" stop-color="#515151"/><stop offset="0.77" stop-color="#171717"/></radialGradient></defs><g id="Слой_2" data-name="Слой 2"><g id="Слой_1-2" data-name="Слой 1"><polygon class="cls-1" points="215.18 145.56 181.9 102.25 191.22 87.8 215.18 145.56"/><rect class="cls-2" x="29.59" width="251.17" height="251.17" rx="43.34"/><polygon class="cls-3" points="29.59 192.8 126.16 61.62 29.59 113.45 29.59 192.8"/><polygon class="cls-1" points="128.4 197.79 93.28 148.16 109.32 131.98 128.4 197.79"/><polygon class="cls-1" points="196 36.89 136.28 97.57 143.29 113.1 196 36.89"/><polygon class="cls-1" points="218.7 157.77 184.87 113.75 194.35 99.06 218.7 157.77"/><polygon class="cls-4" points="240.31 38.31 221.58 82.81 196 36.89 143.29 113.1 126.16 61.62 16.22 147.43 0 242.18 109.32 131.98 128.4 197.79 194.35 99 218.7 157.71 256.06 56.84 309.55 12.44 240.31 38.31"/><polygon class="cls-1" points="240.31 38.31 215.88 72.58 221.58 82.81 240.31 38.31"/><path id="Path_18" data-name="Path 18" class="cls-5" d="M230.12,230.66A3.34,3.34,0,0,1,227,234.2H215a3.38,3.38,0,0,1-3.54-3.2h0a1.93,1.93,0,0,1,0-.34V218H216v12.29h9.82v-46h4.5Z"/><path id="Path_19" data-name="Path 19" class="cls-5" d="M257.56,230.66a3.43,3.43,0,0,1-1,2.57,3.3,3.3,0,0,1-2.57,1H241.44a3.39,3.39,0,0,1-3.56-3.19,2.16,2.16,0,0,1,0-.36V218h4.5v12.29h10.78v-11.9l-13.79-16.72a5.79,5.79,0,0,1-1.49-3.8V187.76a3.39,3.39,0,0,1,1-2.57,3.52,3.52,0,0,1,2.57-1H254a3.34,3.34,0,0,1,2.57,1,3.5,3.5,0,0,1,1,2.57v11.58h-4.42V188.11h-10.8v10.51l13.86,16.66a5.74,5.74,0,0,1,1.36,3.74Z"/></g></g></svg>